<svg width="161" height="33" viewBox="0 0 161 33" fill="none" xmlns="http://www.w3.org/2000/svg">
<g filter="url(#filter0_d_124_7)">
<path d="M7.56799 22.556L18.16 11.74L7.88799 1.5H13.776L21.456 9.308L28.912 1.5H34.352L24.048 11.804L34.672 22.556H28.784L20.816 14.364L13.104 22.556H7.56799ZM44.995 22.556L32.931 1.5H38.019L47.81 18.876H47.874L57.602 1.5H62.242L50.212 22.556H44.996H44.995ZM72.575 22.556L60.512 1.5H65.6L75.392 18.876H75.456L85.184 1.5H89.824L77.792 22.556H72.576H72.575ZM107.448 22.556L104.824 17.884H90.328L87.704 22.556H83.064L95.256 1.5H100.408L112.6 22.556H107.448ZM91.96 14.972H103.192L97.592 5.052H97.56L91.96 14.972ZM117.894 22.556L105.83 1.5H110.918L120.71 18.876H120.774L130.502 1.5H135.142L123.11 22.556H117.894ZM134.82 22.556V1.5H154.372V4.988H139.236V10.524H151.172V13.404H139.236V19.068H154.692V22.556H134.82Z" fill="#E6DADA"/>
<path d="M7.568 22.556L6.496 21.506L4 24.056H7.568V22.556ZM18.16 11.74L19.232 12.79L20.272 11.727L19.219 10.677L18.16 11.74ZM7.888 1.5V0H4.258L6.829 2.562L7.888 1.5ZM13.776 1.5L14.846 0.448L14.405 0H13.776V1.5ZM21.456 9.308L20.386 10.36L21.472 11.463L22.541 10.343L21.456 9.308ZM28.912 1.5V0H28.27L27.827 0.464L28.912 1.5ZM34.352 1.5L35.412 2.56L37.973 0H34.352V1.5ZM24.048 11.804L22.988 10.744L21.933 11.798L22.981 12.858L24.048 11.804ZM34.672 22.556V24.056H38.262L35.739 21.502L34.672 22.556ZM28.784 22.556L27.709 23.602L28.151 24.056H28.784V22.556ZM20.816 14.364L21.891 13.318L20.798 12.195L19.724 13.335L20.816 14.364ZM13.104 22.556V24.056H13.752L14.196 23.584L13.104 22.556ZM8.64 23.606L19.232 12.788L17.088 10.689L6.496 21.506L8.64 23.606ZM19.219 10.677L8.947 0.438L6.829 2.562L17.101 12.802L19.219 10.677ZM7.888 3H13.776V0H7.888V3ZM12.707 2.552L20.386 10.36L22.525 8.256L14.845 0.448L12.707 2.552ZM22.541 10.344L29.997 2.536L27.827 0.464L20.371 8.272L22.541 10.344ZM28.912 3H34.352V0H28.912V3ZM33.292 0.44L22.986 10.742L25.108 12.864L35.412 2.561L33.291 0.439L33.292 0.44ZM22.98 12.857L33.604 23.609L35.738 21.501L25.114 10.749L22.98 12.857ZM34.672 21.056H28.784V24.056H34.672V21.056ZM29.859 21.51L21.891 13.318L19.741 15.41L27.709 23.602L29.859 21.51ZM19.724 13.335L12.012 21.528L14.196 23.584L21.908 15.392L19.724 13.335ZM13.104 21.056H7.568V24.056H13.104V21.056ZM44.994 22.556L43.693 23.302L44.125 24.056H44.995L44.994 22.556ZM32.932 1.5V0H30.342L31.629 2.246L32.932 1.5ZM38.02 1.5L39.326 0.764L38.896 0H38.019L38.02 1.5ZM47.811 18.876L46.505 19.612L46.935 20.376H47.812L47.811 18.876ZM47.875 18.876V20.376H48.755L49.185 19.609L47.875 18.876ZM57.602 1.5V0H56.723L56.293 0.767L57.602 1.5ZM62.242 1.5L63.545 2.244L64.827 0H62.242V1.5ZM50.212 22.556V24.056H51.082L51.514 23.3L50.212 22.556ZM46.297 21.81L34.232 0.754L31.629 2.246L43.693 23.302L46.297 21.81ZM32.931 3H38.019V0H32.932L32.931 3ZM36.711 2.236L46.505 19.612L49.117 18.14L39.326 0.764L36.711 2.236ZM47.812 20.376H47.875L47.874 17.376H47.81V20.376H47.812ZM49.183 19.609L58.912 2.233L56.294 0.766L46.566 18.142L49.183 19.609ZM57.603 3H62.243L62.242 0H57.602L57.603 3ZM60.94 0.756L48.908 21.812L51.514 23.3L63.545 2.244L60.94 0.756ZM50.21 21.056H44.995V24.056H50.212L50.211 21.056H50.21ZM72.577 22.556L71.275 23.302L71.707 24.056H72.577V22.556ZM60.512 1.5V0H57.924L59.21 2.246L60.512 1.5ZM65.6 1.5L66.906 0.764L66.476 0H65.6V1.5ZM75.392 18.876L74.085 19.612L74.515 20.376H75.392V18.876ZM75.456 18.876V20.376H76.335L76.765 19.609L75.456 18.876ZM85.184 1.5V0H84.304L83.874 0.767L85.184 1.5ZM89.824 1.5L91.126 2.244L92.408 0H89.824V1.5ZM77.792 22.556V24.056H78.662L79.094 23.3L77.792 22.556ZM73.877 21.81L61.813 0.754L59.21 2.246L71.275 23.302L73.877 21.81ZM60.512 3H65.6V0H60.512V3ZM64.293 2.236L74.085 19.612L76.699 18.14L66.906 0.764L64.293 2.236ZM75.392 20.376H75.456V17.376H75.392V20.376ZM76.765 19.609L86.492 2.233L83.875 0.766L74.147 18.142L76.765 19.609ZM85.184 3H89.824V0H85.184V3ZM88.521 0.756L76.489 21.812L79.094 23.3L91.126 2.244L88.521 0.756ZM77.792 21.056H72.577V24.056H77.792V21.056ZM107.449 22.556L106.141 23.291L106.571 24.056H107.449V22.556ZM104.825 17.884L106.133 17.149L105.703 16.384H104.825V17.884ZM90.329 17.884V16.384H89.451L89.021 17.149L90.329 17.884ZM87.704 22.556V24.056H88.582L89.012 23.291L87.704 22.556ZM83.064 22.556L81.766 21.804L80.462 24.056H83.064V22.556ZM95.256 1.5V0H94.391L93.958 0.748L95.256 1.5ZM100.408 1.5L101.706 0.748L101.273 0H100.408V1.5ZM112.6 22.556V24.056H115.202L113.898 21.804L112.6 22.556ZM91.96 14.972L90.654 14.235L89.391 16.472H91.96V14.972ZM103.192 14.972V16.472H105.761L104.498 14.235L103.192 14.972ZM97.592 5.052L98.898 4.315L98.468 3.552H97.592V5.052ZM97.56 5.052V3.552H96.684L96.254 4.315L97.56 5.052ZM108.756 21.822L106.132 17.15L103.516 18.618L106.14 23.29L108.756 21.821V21.822ZM104.825 16.384H90.329L90.328 19.384H104.824L104.825 16.384ZM89.021 17.149L86.396 21.821L89.012 23.291L91.636 18.619L89.021 17.149ZM87.704 21.056H83.064V24.056H87.704V21.056ZM84.362 23.308L96.554 2.252L93.958 0.748L81.766 21.804L84.362 23.308ZM95.256 3H100.408V0H95.256V3ZM99.11 2.252L111.302 23.308L113.898 21.804L101.706 0.748L99.11 2.252ZM112.6 21.056H107.448L107.449 24.056H112.6V21.056ZM91.96 16.472H103.192V13.472H91.96V16.472ZM104.498 14.235L98.898 4.315L96.286 5.789L101.886 15.709L104.498 14.235ZM97.592 3.552H97.56V6.552H97.592V3.552ZM96.254 4.315L90.654 14.235L93.266 15.709L98.866 5.789L96.254 4.315ZM117.894 22.556L116.593 23.302L117.025 24.056H117.894V22.556ZM105.83 1.5V0H103.242L104.529 2.246L105.83 1.5ZM110.918 1.5L112.225 0.764L111.795 0H110.918V1.5ZM120.71 18.876L119.404 19.612L119.834 20.376H120.71V18.876ZM120.774 18.876V20.376H121.654L122.083 19.609L120.774 18.876ZM130.503 1.5V0H129.623L129.194 0.767L130.503 1.5ZM135.143 1.5L136.445 2.244L137.727 0H135.143V1.5ZM123.11 22.556V24.056H123.981L124.413 23.3L123.11 22.556ZM119.196 21.81L107.132 0.754L104.529 2.246L116.593 23.302L119.196 21.81ZM105.83 3H110.918V0H105.83V3ZM109.612 2.236L119.404 19.612L122.017 18.14L112.225 0.764L109.612 2.236ZM120.71 20.376H120.774V17.376H120.71V20.376ZM122.083 19.609L131.811 2.233L129.194 0.767L119.466 18.143L122.083 19.609ZM130.503 3H135.143V0H130.503V3ZM133.84 0.756L121.808 21.812L124.413 23.3L136.445 2.244L133.84 0.756ZM123.11 21.056H117.894V24.056H123.11V21.056ZM134.82 22.556H133.32V24.056H134.82V22.556ZM134.82 1.5V0H133.32V1.5H134.82ZM154.372 1.5H155.872V0H154.372V1.5ZM154.372 4.988V6.488H155.872V4.988H154.372ZM139.236 4.988V3.488H137.736V4.988H139.236ZM139.236 10.524H137.736V12.024H139.236V10.524ZM151.172 10.524H152.672V9.024H151.172V10.524ZM151.172 13.404V14.904H152.672V13.404H151.172ZM139.236 13.404V11.904H137.736V13.404H139.236ZM139.236 19.068H137.736V20.568H139.236V19.068ZM154.692 19.068H156.192V17.568H154.692V19.068ZM154.692 22.556V24.056H156.192V22.556H154.692ZM136.32 22.556V1.5H133.32V22.556H136.32ZM134.82 3H154.372V0H134.82V3ZM152.872 1.5V4.988H155.872V1.5H152.872ZM154.372 3.488H139.236V6.488H154.372V3.488ZM137.736 4.988V10.524H140.736V4.988H137.736ZM139.236 12.024H151.172V9.024H139.236V12.024ZM149.672 10.524V13.404H152.672V10.524H149.672ZM151.172 11.904H139.236V14.904H151.172V11.904ZM137.736 13.404V19.068H140.736V13.404H137.736ZM139.236 20.568H154.692V17.568H139.236V20.568ZM153.192 19.068V22.556H156.192V19.068H153.192ZM154.692 21.056H134.82V24.056H154.692V21.056Z" fill="#E6DADA"/>
</g>
<defs>
<filter id="filter0_d_124_7" x="0" y="0" width="160.192" height="32.056" filterUnits="userSpaceOnUse" color-interpolation-filters="sRGB">
<feFlood flood-opacity="0" result="BackgroundImageFix"/>
<feColorMatrix in="SourceAlpha" type="matrix" values="0 0 0 0 0 0 0 0 0 0 0 0 0 0 0 0 0 0 127 0" result="hardAlpha"/>
<feOffset dy="4"/>
<feGaussianBlur stdDeviation="2"/>
<feComposite in2="hardAlpha" operator="out"/>
<feColorMatrix type="matrix" values="0 0 0 0 0 0 0 0 0 0 0 0 0 0 0 0 0 0 0.25 0"/>
<feBlend mode="normal" in2="BackgroundImageFix" result="effect1_dropShadow_124_7"/>
<feBlend mode="normal" in="SourceGraphic" in2="effect1_dropShadow_124_7" result="shape"/>
</filter>
</defs>
</svg>
