<?xml version="1.0" standalone="no"?>
<!DOCTYPE svg PUBLIC "-//W3C//DTD SVG 20010904//EN"
 "http://www.w3.org/TR/2001/REC-SVG-20010904/DTD/svg10.dtd">
<svg version="1.0" xmlns="http://www.w3.org/2000/svg"
 width="175.000000pt" height="175.000000pt" viewBox="0 0 175.000000 175.000000"
 preserveAspectRatio="xMidYMid meet">

<g transform="translate(0.000000,175.000000) scale(0.100000,-0.100000)"
fill="#000000" stroke="none">
<path d="M1195 1688 c-11 -11 -46 -45 -78 -76 -41 -40 -70 -81 -98 -138 -21
-44 -39 -86 -39 -92 0 -25 -51 -7 -71 24 -20 33 -78 76 -119 89 -22 6 -23 5
-9 -6 27 -24 69 -85 62 -92 -3 -4 -19 -7 -34 -7 -40 0 -45 -17 -10 -35 56 -28
76 -86 51 -149 -16 -43 -52 -59 -105 -48 l-45 10 0 -32 c0 -49 28 -132 54
-163 14 -16 27 -46 31 -66 8 -39 17 -42 75 -19 14 5 46 15 72 21 27 6 71 22
100 36 146 71 188 -14 107 -217 -103 -262 -271 -503 -399 -572 -93 -51 -213
-34 -239 33 -5 14 -15 60 -21 101 -6 41 -20 126 -32 188 -33 186 -22 476 24
620 13 43 72 81 156 102 62 15 67 18 73 48 3 17 5 33 3 35 -2 2 -34 0 -71 -5
-55 -8 -74 -15 -99 -40 -45 -43 -79 -111 -103 -203 -91 -360 -75 -757 36 -904
35 -45 103 -75 152 -66 153 28 353 250 501 556 73 152 110 258 110 318 l0 45
43 -42 c23 -23 50 -42 60 -42 52 0 71 173 29 265 -45 98 -137 165 -242 178
-25 3 -37 4 -27 1 17 -5 88 -76 95 -95 8 -21 -38 -7 -64 20 -37 37 -93 71
-118 71 -16 0 -18 5 -13 35 13 77 68 167 154 253 47 45 81 82 76 81 -4 0 -17
-10 -28 -21z m-154 -416 c76 -58 84 -69 75 -115 -9 -47 -41 -77 -82 -77 -17 0
-51 -7 -74 -15 -53 -19 -55 -19 -74 1 -22 21 -20 58 6 140 26 83 44 114 69
114 10 0 46 -21 80 -48z"/>
</g>
</svg>
