<?xml version="1.0" standalone="no"?>
<!DOCTYPE svg PUBLIC "-//W3C//DTD SVG 20010904//EN"
 "http://www.w3.org/TR/2001/REC-SVG-20010904/DTD/svg10.dtd">
<svg version="1.0" xmlns="http://www.w3.org/2000/svg"
 width="934.000000pt" height="918.000000pt" viewBox="0 0 934.000000 918.000000"
 preserveAspectRatio="xMidYMid meet">

<g transform="translate(0.000000,918.000000) scale(0.100000,-0.100000)"
fill="#000000" stroke="none">
<path d="M1173 8510 c-39 -10 -88 -27 -110 -38 -112 -58 -218 -167 -270 -279
-57 -122 -53 105 -51 -3625 l3 -3433 22 -66 c63 -184 221 -331 407 -379 79
-20 104 -20 3505 -20 3770 0 3483 -5 3616 61 143 70 237 180 301 354 18 48 19
165 22 3483 2 3724 6 3496 -51 3622 -51 114 -156 223 -270 282 -21 10 -73 28
-114 39 -75 19 -144 19 -3507 18 -3322 0 -3433 -1 -3503 -19z m4532 -1079
c267 -59 498 -179 687 -359 227 -217 368 -481 423 -794 19 -107 19 -337 0
-453 -33 -207 -123 -427 -244 -595 -75 -106 -219 -251 -315 -320 l-74 -53 56
-91 c419 -686 373 -1576 -115 -2230 -78 -104 -249 -280 -349 -359 -480 -376
-1071 -515 -1667 -391 -373 78 -722 268 -992 539 -286 287 -466 624 -550 1025
-33 155 -45 444 -26 610 68 594 399 1126 903 1454 124 81 312 169 463 217 71
23 134 45 138 49 5 5 1 43 -8 86 -26 120 -31 365 -11 496 97 617 589 1101
1208 1188 104 15 370 4 473 -19z"/>
<path d="M5275 6835 c-251 -46 -461 -207 -575 -438 -60 -123 -74 -189 -75
-347 0 -160 14 -222 80 -355 78 -159 190 -274 345 -354 125 -65 212 -86 370
-86 153 0 218 14 337 70 218 103 361 268 435 505 20 64 23 96 23 220 0 162
-16 232 -80 360 -158 315 -512 490 -860 425z"/>
<path d="M4370 5114 c-533 -65 -986 -429 -1156 -927 -56 -162 -67 -239 -68
-442 -1 -264 30 -399 144 -630 163 -329 456 -580 810 -693 159 -51 258 -66
425 -66 378 0 703 133 974 397 195 189 315 408 388 707 26 107 26 428 0 550
-117 546 -527 960 -1072 1081 -88 20 -358 33 -445 23z m338 -845 c82 -26 179
-85 242 -149 308 -308 180 -833 -235 -966 -192 -62 -412 -17 -567 116 -65 56
-143 177 -170 263 -32 100 -32 253 -1 352 56 178 219 338 393 385 100 28 250
27 338 -1z"/>
</g>
</svg>
