<svg xmlns="http://www.w3.org/2000/svg" xmlns:xlink="http://www.w3.org/1999/xlink" width="500" height="500" viewBox="0 0 500 500">
  <defs>
    <clipPath id="clip-Artboard_7">
      <rect width="500" height="500"/>
    </clipPath>
  </defs>
  <g id="Artboard_7" data-name="Artboard – 7" clip-path="url(#clip-Artboard_7)">
    <g id="Arena" transform="translate(0 29.921)">
      <path id="A" d="M550.477,250.423c-29.215,0-62.727.733-85.925,4.4-15.468,2.2-23.2,8.07-28.356,24.209-37.81,115.175-73.9,233.284-103.971,349.189-6.876,26.41-10.313,36.681-10.313,43.284,0,9.535,6.874,15.4,22.339,16.872q25.78,2.2,64.448,2.2h8.592c2.07,0,4.137-.015,6.2-.03,2.6.015,5.229.03,7.928.03h8.592c19.764,0,39.528-.736,55.853-2.2,13.747-1.468,18.9-5.135,21.48-18.34,2.58-13.938,6.017-33.011,9.454-48.417h90.228c3.439,15.406,6.874,34.479,9.454,48.417,2.578,13.205,7.733,16.872,21.483,18.34,16.325,1.466,36.089,2.2,55.85,2.2H712.4c2.7,0,5.323-.015,7.928-.03,2.065.015,4.133.03,6.2.03h8.592q38.667,0,64.448-2.2c15.465-1.468,22.339-7.337,22.339-16.872,0-6.6-3.437-16.875-10.31-43.284-30.074-115.905-66.163-234.014-103.971-349.189-5.155-16.139-12.891-22.007-28.356-24.209-23.2-3.67-56.712-4.4-85.927-4.4Zm-6.495,280.968c8.679-41.6,18.39-87.108,27.93-127.734,9.543,40.625,19.254,86.135,27.93,127.734Z" transform="translate(-321.912 -250.423)" fill="#69cba8"/>
      <g id="Swirls">
        <path id="Path_253" data-name="Path 253" d="M520.1,253.375c-22.072-2.414-49.994-2.951-74.832-2.951H422.228A1075.419,1075.419,0,0,1,586.969,364.14q-11.9-37.7-24.147-75.109Q541.789,270.634,520.1,253.375Z" transform="translate(-173.837 -250.423)" fill="#80ffd2"/>
        <path id="Path_254" data-name="Path 254" d="M391.36,251.483A976.024,976.024,0,0,1,646.317,407.971c-.626-2.033-1.26-4.063-1.887-6.094a1003.982,1003.982,0,0,0-236.05-151.209C402.6,250.871,396.889,251.138,391.36,251.483Z" transform="translate(-219.401 -250.061)" fill="#80ffd2"/>
        <path id="Path_255" data-name="Path 255" d="M370.208,262.114q182.787,62.063,323.656,194.811-1.716-5.753-3.437-11.509C599.476,360.15,495.485,295.928,378.7,254.005A24.928,24.928,0,0,0,370.208,262.114Z" transform="translate(-250.623 -245.136)" fill="#80ffd2"/>
        <path id="Path_256" data-name="Path 256" d="M367.474,270.021q-1.712,5.263-3.415,10.533c138.413,42.217,257.676,116.866,358.854,221.4-1.2-4.224-2.389-8.448-3.6-12.675C619.613,387.021,502.581,312.758,367.474,270.021Z" transform="translate(-259.7 -221.495)" fill="#80ffd2"/>
        <path id="Path_257" data-name="Path 257" d="M425.086,321.9q1.393,6.151,2.783,12.363c86.222,45.7,162.758,107.531,230.308,184.151q-1.772-6.8-3.568-13.6C587.123,429.065,510.818,367.517,425.086,321.9Z" transform="translate(-169.619 -144.92)" fill="#80ffd2"/>
        <path id="Path_258" data-name="Path 258" d="M515.268,365.6q1.114-4.943,2.228-9.825a773.177,773.177,0,0,0-158.152-60.275q-1.749,5.538-3.486,11.078A776.151,776.151,0,0,1,515.268,365.6Z" transform="translate(-271.805 -183.893)" fill="#80ffd2"/>
        <path id="Path_259" data-name="Path 259" d="M567.953,391.988c2.266,10.7,4.489,21.287,6.648,31.634h-55.86c3.377-16.189,6.913-32.969,10.531-49.821a764.451,764.451,0,0,0-166.516-50.368q-12.186,40.094-23.743,80.237c149.533,17.4,275.481,80.3,381.473,179.095q31.67-.267,53.847-2.154c11.685-1.109,18.459-4.734,21.076-10.551C730.24,496.444,655,436.1,567.953,391.988Z" transform="translate(-296.671 -142.654)" fill="#80ffd2"/>
        <path id="Path_260" data-name="Path 260" d="M332.225,458.344c-6.876,26.41-10.313,36.681-10.313,43.285,0,9.535,6.874,15.4,22.339,16.872q25.78,2.2,64.448,2.2h8.592c2.07,0,4.137-.015,6.2-.03,2.6.015,5.227.03,7.926.03h8.592c19.764,0,39.528-.735,55.853-2.2,13.747-1.468,18.9-5.135,21.48-18.34,2.58-13.938,6.017-33.011,9.454-48.417h90.228c3.439,15.406,6.874,34.479,9.454,48.417,2.578,13.2,7.733,16.872,21.48,18.34,16.327,1.466,36.089,2.2,55.853,2.2H712.4c2.7,0,5.323-.015,7.928-.03,2.065.015,4.133.03,6.2.03h8.592c1.112,0,2.172-.01,3.268-.012C633.849,434.648,508.408,380.055,357.419,365.511Q344.271,412.064,332.225,458.344Z" transform="translate(-321.912 -80.544)" fill="#80ffd2"/>
      </g>
    </g>
  </g>
</svg>
