<?xml version="1.0" standalone="no"?>
<!DOCTYPE svg PUBLIC "-//W3C//DTD SVG 20010904//EN"
 "http://www.w3.org/TR/2001/REC-SVG-20010904/DTD/svg10.dtd">
<svg version="1.0" xmlns="http://www.w3.org/2000/svg"
 width="225.000000pt" height="225.000000pt" viewBox="0 0 225.000000 225.000000"
 preserveAspectRatio="xMidYMid meet">

<g transform="translate(0.000000,225.000000) scale(0.100000,-0.100000)"
fill="#000000" stroke="none">
<path d="M1070 1945 l0 -305 -22 0 c-37 -1 -153 -45 -201 -78 l-45 -30 -76 77
-76 76 0 118 0 118 -157 -3 -158 -3 -3 -152 -3 -153 117 0 c130 0 121 4 226
-97 l58 -54 -25 -33 c-39 -51 -75 -142 -87 -221 -19 -122 14 -259 89 -368 l26
-37 -79 -75 -79 -74 -123 -1 -123 0 3 -152 3 -153 160 0 160 0 3 121 3 120 74
74 c69 69 75 73 92 58 31 -27 121 -68 181 -82 l57 -13 3 -311 2 -312 60 0 60
0 0 315 0 315 25 0 c37 0 132 36 186 69 l47 29 76 -77 76 -76 0 -118 0 -117
160 0 160 0 0 155 0 155 -118 0 -117 0 -83 76 c-83 76 -83 77 -64 98 126 141
137 398 26 581 l-36 60 77 73 77 72 119 0 120 0 -3 153 -3 152 -157 3 -158 3
0 -118 0 -119 -73 -72 -73 -72 -75 39 c-42 21 -101 45 -133 52 l-56 12 0 304
0 303 -60 0 -60 0 0 -305z m232 -442 c88 -41 160 -113 201 -201 29 -62 32 -75
32 -167 -1 -80 -5 -111 -23 -156 -84 -210 -321 -311 -537 -229 -85 33 -193
141 -224 225 -87 233 28 473 264 552 25 8 75 12 130 10 77 -2 100 -7 157 -34z"/>
<path d="M1010 1140 l0 -120 125 0 125 0 0 120 0 120 -125 0 -125 0 0 -120z"/>
</g>
</svg>
